# xmcd CD database file
#
# Track frame offsets:
#	183
#	22058
#	41910
#	65033
#	83765
#	108293
#	126095
#	140025
#	159140
#	182663
#	205033
#	220490
#
# Disc length: 3258 seconds
#
# Revision: 0
# Processed by: cddbd v1.5.2PL0 Copyright (c) Steve Scherf et al.
# Submitted via: CDex 1.51
#
DISCID=ad0cb80c
DTITLE=Lafitte - Picture Of You
DYEAR=1995
DGENRE=Jazz
TTITLE0=Think I Love It
TTITLE1=Easy
TTITLE2=Love Will Always Be Around
TTITLE3=The Girl
TTITLE4=No Denying
TTITLE5=Keep Looking
TTITLE6=Picture Of You
TTITLE7=Stay
TTITLE8=Special
TTITLE9=Fair and Square
TTITLE10=Alfie
TTITLE11=Babylon
EXTD=YEAR: 1995
EXTT0=
EXTT1=
EXTT2=
EXTT3=
EXTT4=
EXTT5=
EXTT6=
EXTT7=
EXTT8=
EXTT9=
EXTT10=
EXTT11=
PLAYORDER=
